<?xml version="1.0" encoding="utf-8"?>
<!-- Generator: Adobe Illustrator 21.0.0, SVG Export Plug-In . SVG Version: 6.00 Build 0)  -->
<svg version="1.1" id="Layer_1" xmlns="http://www.w3.org/2000/svg" xmlns:xlink="http://www.w3.org/1999/xlink" x="0px" y="0px"
	 viewBox="0 0 100 103.2" style="enable-background:new 0 0 100 103.2;" xml:space="preserve">
<style type="text/css">
	.st0{clip-path:url(#SVGID_4_);fill:#DB2940;}
</style>
<g>
	<defs>
		<circle id="SVGID_1_" cx="50" cy="50" r="50"/>
	</defs>
	<clipPath id="SVGID_2_">
		<use xlink:href="#SVGID_1_"  style="overflow:visible;"/>
	</clipPath>
</g>
<g>
	<defs>
		<circle id="SVGID_3_" cx="50" cy="51.6" r="50"/>
	</defs>
	<use xlink:href="#SVGID_3_"  style="overflow:visible;fill:#FFFFFF;"/>
	<clipPath id="SVGID_4_">
		<use xlink:href="#SVGID_3_"  style="overflow:visible;"/>
	</clipPath>
	<path class="st0" d="M86.6,84.9c-2.4-1.2-8.7-2.3-14.5-4c0,0,0,0,0.1,0L69,80c-0.6-0.2-1.2-0.4-1.8-0.7c-0.1,0-0.1,0-0.2-0.1
		c-0.6-0.3-1.3-0.5-1.8-0.8c0,0-0.1,0-0.1-0.1c-0.2-0.1-0.5-0.2-0.7-0.4c-0.1,0-0.1-0.1-0.2-0.1c-0.2-0.1-0.5-0.3-0.7-0.4
		c0,0-0.1,0-0.1-0.1c-0.3-0.2-0.5-0.3-0.7-0.5c0,0,0,0,0,0c-0.2-0.2-0.4-0.3-0.6-0.5c0,0-0.1-0.1-0.1-0.1c-0.1-0.1-0.3-0.3-0.4-0.4
		c0,0-0.1-0.1-0.1-0.1c-0.1-0.2-0.3-0.3-0.4-0.5c0,0,0,0-0.1-0.1c-0.1-0.2-0.3-0.4-0.4-0.6c0,0,0-0.1-0.1-0.1
		c-0.1-0.1-0.1-0.3-0.2-0.4c0-0.1,0-0.1-0.1-0.2c0-0.1-0.1-0.3-0.1-0.4c0-0.1,0-0.1,0-0.2c0-0.2-0.1-0.4-0.1-0.6v-3.7
		c3.7-2.9,6.4-7.5,7.4-12.7c0.1,0,0.1,0,0.2,0c1.8,0,3.3-3.2,3.4-7.2c0.1-2.3-0.3-4.4-1.1-5.7c0.9-2,1.9-4.9,2.8-8.9
		c2.1-9.4-3-20-3-20s-3.1,4-17.2,1.2c-11.2-2.2-24.6-2-23.5,17.6c0.2,3.3,0.8,6.3,1.7,9.1c-1.2,1-2,3.6-1.8,6.7
		c0.1,4,1.7,7.2,3.4,7.2c0.1,0,0.1,0,0.2,0c1,5.3,3.8,9.8,7.4,12.7v3.7c0,0.2,0,0.4-0.1,0.6c0,0.1,0,0.1,0,0.2
		c0,0.1-0.1,0.3-0.1,0.4c0,0.1,0,0.1-0.1,0.2c-0.1,0.1-0.1,0.3-0.2,0.4c0,0,0,0.1-0.1,0.1c-0.1,0.2-0.2,0.4-0.4,0.5
		c0,0,0,0.1-0.1,0.1c-0.1,0.1-0.2,0.3-0.4,0.4c0,0.1-0.1,0.1-0.2,0.2c-0.1,0.1-0.3,0.2-0.4,0.4c-0.1,0-0.1,0.1-0.2,0.1
		c-0.2,0.1-0.4,0.3-0.6,0.4c0,0,0,0-0.1,0c-0.2,0.2-0.5,0.3-0.7,0.5c0,0-0.1,0.1-0.2,0.1c-0.2,0.1-0.4,0.2-0.6,0.4
		c-0.1,0-0.1,0.1-0.2,0.1c-0.2,0.1-0.4,0.2-0.6,0.3c-0.1,0-0.1,0.1-0.2,0.1c-0.6,0.3-1.2,0.5-1.8,0.8c-0.1,0-0.2,0.1-0.2,0.1
		c-0.1,0.1-0.3,0.1-0.4,0.2l-4.5,1.5h0c-5.8,1.7-12,2.8-14.5,4c-1.6,0.8-3,1.9-4,3.7c0,0,0,0,0,0l38.2,21.7l42.8-21.7
		C89.5,86.9,88.2,85.7,86.6,84.9z"/>
</g>
</svg>
